<svg width="193" height="20" viewBox="0 0 193 20" fill="none" xmlns="http://www.w3.org/2000/svg">
<path d="M0.643311 6.85676C0.718701 6.69181 0.794092 6.52686 0.907178 6.38547C0.756396 6.52686 0.681006 6.69181 0.643311 6.85676ZM9.95405 2.09666C10.2933 2.0731 10.5949 2.0731 10.9341 2.0731C11.0095 2.0731 11.0849 2.0731 11.1603 2.0731C10.7457 2.04953 10.3687 2.04953 9.95405 2.09666ZM18.0208 3.72264C18.2847 3.88759 18.5863 4.02898 18.8125 4.2175C18.5863 4.02898 18.3224 3.86403 18.0208 3.72264Z" fill="#1B70F1"/>
<path d="M16.2869 10.7217L20.2449 12.1591C18.3224 14.2328 14.7791 15.5289 10.9341 15.5289C5.01598 15.5289 0.190979 12.489 0.190979 8.81292C0.190979 8.1531 0.34176 7.49328 0.643323 6.8806C0.718713 6.71564 0.794104 6.55069 0.90719 6.4093C1.17106 6.12652 1.54801 5.8673 2.11344 5.72591C2.37731 5.65522 2.64117 5.60809 2.90504 5.56096C3.13121 4.35915 4.41285 3.81716 6.10914 3.55795C6.37301 3.51082 6.67457 3.41656 6.86305 3.27517C7.80543 2.63892 8.8609 2.23831 9.95406 2.12049C10.2933 2.09692 10.5949 2.09692 10.9341 2.09692C11.0095 2.09692 11.0849 2.09692 11.1603 2.09692C12.1781 2.16762 13.2336 2.4504 14.2136 2.99239C14.4398 3.11021 14.8168 3.18091 15.1183 3.18091C16.2869 3.20447 17.267 3.39299 18.0209 3.74647C18.2847 3.91142 18.5863 4.05281 18.8125 4.24133C19.3402 4.61836 19.8302 5.01897 20.2449 5.4667L19.7925 5.63166L17.5308 6.45643C17.0785 6.43286 16.6261 6.36217 16.1738 6.3386C15.9853 6.31504 15.7968 6.31504 15.6084 6.3386C15.3822 6.17365 15.156 6.03226 14.8921 5.89087C15.2691 5.84374 15.7214 5.84374 16.1738 5.86731C16.8523 5.91444 17.1539 5.70235 16.8523 5.30175C16.7015 5.0661 16.4377 4.85401 16.2115 4.5948C17.0785 4.75975 17.1539 4.78332 17.7947 5.56096C18.0209 5.82017 18.3224 6.03226 18.7371 5.86731C19.0009 5.77305 19.1894 5.44314 19.114 5.23105C18.8879 4.40628 16.89 3.53438 15.5707 3.6522C15.3822 3.67577 15.0806 3.86429 15.0806 3.98211C15.0806 5.08966 15.0806 5.08966 13.5351 5.30175L13.4974 5.32531C13.2713 5.25462 13.0074 5.18392 12.7435 5.13679C12.555 4.31202 12.1027 4.17063 11.1603 3.46369C11.5373 3.53438 11.9142 3.60508 12.2158 3.74647C12.5927 3.93498 12.8943 4.21776 13.2713 4.42985C13.4974 4.54767 13.8744 4.57124 14.1759 4.64193C14.2513 4.42985 14.4398 4.21776 14.3644 4.02924C13.9875 3.22804 13.0074 2.7803 11.7257 2.61535C10.4441 2.4504 9.23785 2.54466 8.22008 3.13378C8.0693 3.20447 7.99391 3.3223 8.0316 3.29873C8.8609 3.62864 9.76559 3.86429 10.4064 4.28846C10.708 4.50054 10.9341 4.71263 11.0849 4.97184C11.0472 4.97184 10.9718 4.97184 10.8964 4.97184C10.6703 4.97184 10.4064 4.97184 10.1802 4.99541C9.91637 4.61837 9.46403 4.31202 8.8986 4.1235C7.57926 3.7229 5.39293 3.91142 4.29977 4.52411C3.69664 4.85402 3.43278 5.25462 3.69664 5.72591C3.77203 5.8673 4.14899 6.03226 4.41285 6.05583C5.20445 6.12652 5.6568 5.79661 6.10914 5.44314C6.18453 5.39601 6.18453 5.30175 6.22223 5.18392H4.8652C6.10914 4.50054 7.35309 4.61836 8.44625 5.30175C8.22008 5.37244 7.99391 5.41957 7.80543 5.51383C7.42848 5.32531 7.12692 5.30175 6.78766 5.63166C6.56149 5.84374 6.29762 6.03226 5.99606 6.22078C5.16676 6.73921 4.11129 6.7392 3.2066 6.24434C3.05582 6.15008 2.64117 6.10295 2.52809 6.17365C2.18883 6.31504 1.73649 6.55069 1.73649 6.73921C1.73649 6.99842 2.07574 7.30476 2.415 7.46972C3.16891 7.79963 4.11129 7.75249 4.90289 7.49328C5.01598 7.46972 5.09137 7.42259 5.20446 7.39902C4.94059 7.77606 4.78981 8.17666 4.75211 8.60083C4.75211 8.69509 4.75211 8.78935 4.75211 8.88361C4.75211 11.028 7.54156 12.7483 10.9341 12.7483C13.2336 12.654 15.2314 11.8763 16.2869 10.7217Z" fill="#1B70F1"/>
<path d="M33.094 5.77299L31.8123 9.00138C31.5862 8.93069 31.3223 8.85999 30.9453 8.7893C30.5684 8.74217 30.1914 8.7186 29.8145 8.7186C29.3998 8.7186 28.9852 8.76573 28.6082 8.85999C28.2313 8.95425 27.9297 9.09564 27.6658 9.26059C27.402 9.42555 27.2135 9.63763 27.0627 9.87328C26.9119 10.1089 26.8365 10.3681 26.8365 10.6509V15.5289H22.1246V5.79656H26.5727L26.6858 7.28114C26.7989 7.16332 26.9496 7.04549 27.0627 6.92767C27.5905 6.5035 28.2313 6.17359 28.9475 5.93795C29.6637 5.7023 30.4553 5.58447 31.2469 5.58447C31.5862 5.58447 31.9254 5.60804 32.227 5.6316C32.5662 5.67873 32.8301 5.72586 33.094 5.77299Z" fill="#1B70F1"/>
<path d="M51.3787 5.79652L44.7443 15.5052L42.068 19.7234H37.4314L40.4848 15.246L33.5488 5.79652H38.8262L42.1057 10.6744C42.2941 10.9101 42.4449 11.1693 42.5957 11.4521C42.6711 11.5463 42.7088 11.6406 42.7465 11.7349C42.8973 11.4757 43.0104 11.2164 43.1988 10.9101L46.0637 5.77295H51.3787V5.79652Z" fill="#1B70F1"/>
<path d="M68.9447 8.03509C68.3416 7.28102 67.5123 6.6919 66.4945 6.26773C65.4767 5.84356 64.2705 5.60791 62.9511 5.60791C62.0465 5.60791 61.2172 5.70217 60.3879 5.91425C59.5586 6.12634 58.9177 6.38555 58.39 6.71546C58.3146 6.76259 58.2392 6.80972 58.2015 6.85685L58.1261 5.79643H53.6781V19.5348H58.39V14.5154C58.9554 14.8689 59.5963 15.1517 60.4256 15.3402C61.2172 15.5523 62.0465 15.6465 62.9511 15.6465C64.3082 15.6465 65.5144 15.4345 66.5322 15.0103C67.5877 14.5861 68.3793 13.997 68.9824 13.2194C69.5855 12.4653 69.8871 11.5934 69.8871 10.6037C69.8117 9.66107 69.5101 8.78917 68.9447 8.03509ZM64.7982 12.0176C64.4967 12.3946 64.082 12.6774 63.5543 12.913C63.0265 13.1251 62.4234 13.2194 61.7072 13.2194C60.991 13.2194 60.3502 13.1251 59.8224 12.913C59.2947 12.7009 58.8801 12.4182 58.5785 12.0176C58.2769 11.617 58.1261 11.1928 58.1261 10.6508C58.1261 10.1324 58.2769 9.68463 58.5785 9.3076C58.8801 8.93056 59.2947 8.62422 59.8224 8.41213C60.3502 8.20005 60.991 8.10579 61.7072 8.10579C62.4234 8.10579 63.0642 8.20005 63.5543 8.41213C64.082 8.62422 64.459 8.93056 64.7605 9.3076C65.0621 9.68463 65.2129 10.1324 65.2129 10.6508C65.2506 11.1692 65.0998 11.617 64.7982 12.0176Z" fill="#1B70F1"/>
<path d="M81.9119 5.79645V6.05567C81.6104 6.29131 81.3465 6.52696 81.1203 6.78617C80.6303 7.28104 80.2533 7.79946 79.9895 8.36502H78.8963V15.5287H74.2221V8.36502H71.4703V5.79645H74.2221V3.3457H78.8963V5.79645H81.9119Z" fill="#1B70F1"/>
<path d="M91.7478 15.6937C90.1269 15.6937 88.6945 15.4816 87.4129 15.0339C86.1689 14.5861 85.1512 13.997 84.435 13.2429C83.7187 12.4889 83.3418 11.617 83.3418 10.6508C83.3418 9.68464 83.7187 8.81274 84.435 8.05866C85.1512 7.30458 86.1689 6.71546 87.4129 6.26773C88.6568 5.81999 90.1269 5.60791 91.7478 5.60791C93.3687 5.60791 94.8012 5.81999 96.0828 6.26773C97.3268 6.71546 98.3445 7.30458 99.0607 8.05866C99.7769 8.81274 100.154 9.68464 100.154 10.6508C100.154 11.617 99.7769 12.4889 99.0607 13.2429C98.3445 13.997 97.3644 14.5861 96.0828 15.0339C94.8012 15.4816 93.3687 15.6937 91.7478 15.6937ZM91.7478 13.1722C92.4641 13.1722 93.0672 13.0544 93.6326 12.8423C94.1603 12.6302 94.6127 12.3239 94.9143 11.9469C95.2158 11.5698 95.3666 11.1457 95.3666 10.6508C95.4043 10.1559 95.2535 9.73176 94.9143 9.33116C94.6127 8.95412 94.1603 8.64778 93.6326 8.4357C93.1049 8.22361 92.4641 8.10579 91.7478 8.10579C91.0316 8.10579 90.4285 8.22361 89.8631 8.4357C89.2977 8.64778 88.883 8.95412 88.5437 9.33116C88.2422 9.7082 88.0914 10.1559 88.0914 10.6508C88.0537 11.1457 88.2045 11.5698 88.5437 11.9469C88.8453 12.3239 89.2977 12.6302 89.8631 12.8423C90.4285 13.0544 91.0316 13.1722 91.7478 13.1722Z" fill="#1B70F1"/>
<path d="M117.461 10.1324C117.084 9.68467 116.556 9.30764 115.916 9.0013C115.463 8.78921 114.973 8.64782 114.446 8.53C115.124 8.34148 115.689 8.0587 116.104 7.70523C116.67 7.21037 116.971 6.59768 116.971 5.86717C116.971 5.20735 116.745 4.64179 116.217 4.1705C115.727 3.6992 114.973 3.34573 113.993 3.08651C113.013 2.8273 111.845 2.70947 110.412 2.70947H101.365V5.89073C101.742 6.17351 102.081 6.47985 102.383 6.80976C103.476 7.94088 104.042 9.23694 104.042 10.6508C104.042 12.0647 103.514 13.3608 102.421 14.4919C102.119 14.8218 101.78 15.1282 101.365 15.4109V15.5052H110.714C111.769 15.5052 112.787 15.4345 113.654 15.2696C114.559 15.1046 115.312 14.8689 115.991 14.539C116.67 14.2091 117.16 13.8085 117.499 13.3137C117.838 12.8424 118.027 12.2768 118.027 11.617C118.027 11.075 117.838 10.5801 117.461 10.1324ZM106.039 5.30161H109.507C110.374 5.30161 111.015 5.41943 111.43 5.65508C111.845 5.89073 112.071 6.19708 112.071 6.57411C112.071 6.83333 111.995 7.06897 111.807 7.25749C111.618 7.44601 111.354 7.5874 110.978 7.70523C110.601 7.79949 110.186 7.84662 109.658 7.84662H106.002V5.30161H106.039ZM112.787 12.2768C112.561 12.4889 112.297 12.6538 111.882 12.7481C111.505 12.8659 111.015 12.9131 110.487 12.9131H106.002V10.156H110.337C110.902 10.156 111.392 10.2031 111.807 10.2974C112.221 10.3916 112.523 10.5566 112.749 10.7451C112.975 10.9336 113.088 11.1693 113.088 11.452C113.126 11.8055 113.013 12.0647 112.787 12.2768Z" fill="white"/>
<path d="M132.348 5.77286L131.067 9.00126C130.84 8.93056 130.577 8.85986 130.2 8.78917C129.823 8.71847 129.483 8.71847 129.069 8.71847C128.654 8.71847 128.239 8.7656 127.862 8.85986C127.486 8.95412 127.184 9.09551 126.92 9.26047C126.656 9.42542 126.468 9.63751 126.317 9.87316C126.166 10.1088 126.091 10.368 126.091 10.6508V15.5287H121.379V5.79643H125.827L125.94 7.28102C126.053 7.16319 126.166 7.04537 126.317 6.95111C126.845 6.52694 127.486 6.19703 128.202 5.96138C128.918 5.72573 129.71 5.60791 130.501 5.60791C130.84 5.60791 131.18 5.63147 131.481 5.65504C131.783 5.6786 132.084 5.72573 132.348 5.77286Z" fill="white"/>
<path d="M144.561 5.79656V6.9748C144.26 6.73915 143.958 6.52707 143.581 6.36211C143.129 6.12646 142.564 5.93794 141.961 5.79656C141.357 5.65517 140.679 5.58447 139.925 5.58447C138.568 5.58447 137.362 5.79656 136.306 6.22072C135.251 6.64489 134.421 7.25758 133.818 8.01165C133.215 8.76573 132.914 9.63763 132.914 10.6274C132.914 11.5935 133.215 12.4654 133.818 13.2195C134.421 13.9736 135.251 14.5863 136.269 15.0104C137.286 15.4346 138.455 15.6467 139.774 15.6467C140.49 15.6467 141.131 15.576 141.772 15.4582C142.413 15.3168 142.978 15.1518 143.468 14.9162C143.845 14.7512 144.185 14.5391 144.448 14.3506V15.5053H149.198V5.79656H144.561ZM144.185 12.0177C143.883 12.3947 143.468 12.7011 142.941 12.9132C142.413 13.1252 141.772 13.2195 141.056 13.2195C140.34 13.2195 139.736 13.1252 139.246 12.9132C138.719 12.7011 138.304 12.4183 138.04 12.0177C137.739 11.6406 137.588 11.1929 137.588 10.6509C137.588 10.1325 137.739 9.68476 138.04 9.28416C138.342 8.90712 138.719 8.60078 139.246 8.38869C139.736 8.17661 140.377 8.08235 141.056 8.08235C141.772 8.08235 142.413 8.17661 142.941 8.38869C143.468 8.60078 143.883 8.90712 144.185 9.28416C144.486 9.6612 144.637 10.1325 144.637 10.6509C144.637 11.1694 144.486 11.6171 144.185 12.0177Z" fill="white"/>
<path d="M155.946 3.88777C155.079 3.88777 154.362 3.74638 153.872 3.48717C153.382 3.22795 153.118 2.85091 153.118 2.35605C153.118 1.90832 153.382 1.55485 153.872 1.27207C154.362 0.98929 155.079 0.8479 155.908 0.8479C156.775 0.8479 157.453 0.989289 157.943 1.2485C158.433 1.50772 158.66 1.88475 158.66 2.35605C158.66 2.80378 158.396 3.18083 157.906 3.4636C157.416 3.74638 156.812 3.88777 155.946 3.88777ZM153.608 15.5288V5.79653H158.32V15.5053H153.608V15.5288Z" fill="white"/>
<path d="M177.359 9.54337V15.5053H172.647V9.80259C172.647 9.40198 172.572 9.09564 172.383 8.83642C172.195 8.57721 171.931 8.38869 171.592 8.27087C171.215 8.15304 170.8 8.08235 170.272 8.10591C169.858 8.10591 169.481 8.15304 169.141 8.22374C168.802 8.29443 168.501 8.41226 168.237 8.57721C167.973 8.7186 167.784 8.90712 167.634 9.09564C167.483 9.28416 167.407 9.49624 167.407 9.73189V15.5524H162.733V5.79656H167.181L167.257 6.99837C167.332 6.92767 167.445 6.85697 167.52 6.78628C168.086 6.43281 168.764 6.12646 169.518 5.91438C170.31 5.7023 171.102 5.58447 171.969 5.58447C173.137 5.58447 174.117 5.72586 174.909 6.0322C175.7 6.33855 176.303 6.78628 176.718 7.3754C177.17 7.96452 177.359 8.69503 177.359 9.54337Z" fill="white"/>
<path d="M186.516 15.6937C185.009 15.6937 183.652 15.5523 182.483 15.2459C181.314 14.9396 180.41 14.539 179.731 14.0206L182.558 12.4889C183.161 12.8659 183.84 13.1487 184.594 13.3136C185.348 13.5021 186.064 13.5728 186.743 13.5728C187.006 13.5728 187.27 13.5493 187.459 13.5257C187.685 13.4786 187.836 13.4315 187.986 13.3608C188.137 13.2901 188.25 13.2194 188.326 13.1251C188.401 13.0308 188.439 12.9366 188.439 12.7952C188.439 12.5596 188.25 12.371 187.911 12.2296C187.723 12.1589 187.459 12.0883 187.044 12.0176C186.629 11.9233 186.102 11.829 185.461 11.7348C184.556 11.5934 183.765 11.4049 183.086 11.2164C182.408 11.0043 181.842 10.7686 181.427 10.5094C181.051 10.2502 180.749 9.96741 180.523 9.66107C180.297 9.35472 180.184 9.00125 180.184 8.60065C180.184 8.15292 180.372 7.72875 180.711 7.37528C181.051 6.99824 181.503 6.69189 182.068 6.43268C182.634 6.17347 183.312 5.96139 184.066 5.82C184.82 5.67861 185.612 5.60791 186.403 5.60791C187.27 5.60791 188.1 5.67861 188.853 5.79643C189.645 5.91425 190.361 6.07921 191.04 6.31486C191.718 6.52694 192.321 6.78615 192.849 7.0925L190.399 8.81273C190.06 8.60065 189.645 8.41213 189.23 8.24718C188.778 8.08222 188.326 7.94083 187.873 7.84657C187.421 7.75231 186.969 7.70519 186.592 7.70519C186.29 7.70519 186.026 7.72875 185.8 7.75232C185.574 7.77588 185.385 7.82301 185.235 7.8937C185.084 7.9644 184.971 8.03509 184.895 8.12935C184.82 8.22361 184.782 8.31787 184.782 8.45926C184.782 8.57709 184.82 8.69491 184.933 8.81273C185.046 8.93056 185.197 9.02482 185.385 9.09551C185.574 9.16621 185.876 9.26047 186.328 9.33116C186.743 9.42542 187.346 9.54324 188.1 9.66107C189.004 9.82602 189.796 9.99098 190.474 10.2031C191.153 10.3916 191.681 10.6272 192.058 10.91C192.359 11.1221 192.585 11.3577 192.774 11.6405C192.925 11.9233 193 12.2061 193 12.536C193 13.1487 192.736 13.7142 192.171 14.1855C191.605 14.6568 190.851 15.0574 189.871 15.3166C188.891 15.5759 187.76 15.6937 186.516 15.6937Z" fill="white"/>
</svg>
