<svg width="33" height="32" viewBox="0 0 33 32" fill="none" xmlns="http://www.w3.org/2000/svg">
<g id="Component 2">
<path id="Vector (Stroke)" fill-rule="evenodd" clip-rule="evenodd" d="M5.49514 2.25268C5.80206 2.0802 6.14908 1.99179 6.50112 1.99639C6.84963 2.00094 7.19084 2.0965 7.49096 2.27349L28.4482 14.2758C28.7555 14.4428 29.0126 14.689 29.193 14.989C29.3765 15.2943 29.4735 15.6438 29.4735 16.0001C29.4735 16.3563 29.3765 16.7058 29.193 17.0111C29.0126 17.3111 28.7555 17.5573 28.4482 17.7243L7.491 29.7266C7.19088 29.9036 6.84965 29.9992 6.50112 30.0037C6.14907 30.0083 5.80206 29.9199 5.49514 29.7474C5.18822 29.5749 4.93226 29.3245 4.75315 29.0214C4.57403 28.7183 4.4781 28.3733 4.47505 28.0212L4.47498 28.0126L4.47501 3.97889C4.47806 3.62683 4.57403 3.28182 4.75315 2.97872C4.93226 2.67561 5.18822 2.42517 5.49514 2.25268ZM27.4345 16.0001L6.49054 4.00532L6.47501 3.99624V28.0039L6.49054 27.9948L27.4345 16.0001Z" fill="white"/>
<path id="Vector (Stroke)_2" fill-rule="evenodd" clip-rule="evenodd" d="M5.06792 2.56792C5.45844 2.17739 6.09161 2.17739 6.48213 2.56792L23.1946 19.2804C23.5852 19.6709 23.5852 20.3041 23.1946 20.6946C22.8041 21.0852 22.1709 21.0852 21.7804 20.6946L5.06792 3.98213C4.67739 3.59161 4.67739 2.95844 5.06792 2.56792Z" fill="white"/>
<path id="Vector (Stroke)_3" fill-rule="evenodd" clip-rule="evenodd" d="M23.1946 11.3053C23.5852 11.6959 23.5852 12.329 23.1946 12.7196L6.48213 29.4321C6.09161 29.8226 5.45844 29.8226 5.06792 29.4321C4.67739 29.0415 4.67739 28.4084 5.06792 28.0178L21.7804 11.3053C22.1709 10.9148 22.8041 10.9148 23.1946 11.3053Z" fill="white"/>
</g>
</svg>
